<mxfile host="app.diagrams.net" modified="2023-07-29T23:24:27.706Z" agent="Mozilla/5.0 (Windows NT 10.0; Win64; x64; rv:109.0) Gecko/20100101 Firefox/115.0" version="21.6.6" etag="ZbtTa6oCmik4n8Rdkhu7" type="github">
  <diagram name="第 1 页" id="8MNAU0yJG5AX6V6ZVFFD">
    <mxGraphModel>
      <root>
        <mxCell id="0" />
        <mxCell id="1" parent="0" />
      </root>
    </mxGraphModel>
  </diagram>
</mxfile>
